<svg id="レイヤー_1" data-name="レイヤー 1" xmlns="http://www.w3.org/2000/svg" viewBox="0 0 38 30"><defs><style>.cls-1{fill:#44514b;}</style></defs><path class="cls-1" d="M35.282,13.845h-3.5V2.917a1.663,1.663,0,0,0-1.661-1.661H3.163A1.664,1.664,0,0,0,1.5,2.917v20.7A1.665,1.665,0,0,0,3.163,25.28h9.606v2.464H9.6a.5.5,0,0,0,0,1H23.138a.5.5,0,1,0,0-1h-3.5V25.28h6.285v2.246a1.219,1.219,0,0,0,1.218,1.218h8.143A1.219,1.219,0,0,0,36.5,27.526V15.063A1.219,1.219,0,0,0,35.282,13.845Zm.218,1.218v.987H26.921v-.987a.219.219,0,0,1,.218-.218h8.143A.219.219,0,0,1,35.5,15.063ZM26.921,17.05H35.5v8.5H26.921Zm.218-3.2a1.219,1.219,0,0,0-1.218,1.218v6.2H2.5V5.326H30.777v8.519ZM3.163,2.256H30.116a.662.662,0,0,1,.661.661V4.326H2.5V2.917A.663.663,0,0,1,3.163,2.256ZM18.636,27.744H13.769V25.28h4.867ZM3.163,24.28a.663.663,0,0,1-.663-.662V22.263H25.921V24.28Zm32.119,3.464H27.139a.219.219,0,0,1-.218-.218v-.981H35.5v.981A.219.219,0,0,1,35.282,27.744Z"/></svg>