<svg id="レイヤー_1" data-name="レイヤー 1" xmlns="http://www.w3.org/2000/svg" viewBox="0 0 38 30"><defs><style>.cls-1{fill:#44514b;}</style></defs><path class="cls-1" d="M35.854,25.232h-4.7l.326-3.519a1.294,1.294,0,0,0-.322-.987,1.1,1.1,0,0,0-.818-.369H28.473V18.82h1.3a2.606,2.606,0,0,0,2.6-2.6V13.154a2.582,2.582,0,0,0-1-2.045,1.578,1.578,0,0,1-.656-1.2V8.2a2.607,2.607,0,0,0-2.6-2.6H27.82a2.607,2.607,0,0,0-2.6,2.6V9.91a1.578,1.578,0,0,1-.656,1.2,2.583,2.583,0,0,0-1,2.045v3.063a2.606,2.606,0,0,0,2.6,2.6h1.306v1.537H25.606a1.092,1.092,0,0,0-.816.369,1.285,1.285,0,0,0-.323.987l.327,3.519H21.022V2.512A1.726,1.726,0,0,0,19.3.788H7.342A1.726,1.726,0,0,0,5.619,2.512v22.72H2.146A1.273,1.273,0,0,0,.875,26.5v2.708h36.25V26.5A1.273,1.273,0,0,0,35.854,25.232Zm-11.29-9.015V13.154a1.59,1.59,0,0,1,.613-1.258A2.524,2.524,0,0,0,26.216,9.91V8.2a1.606,1.606,0,0,1,1.6-1.6h.306a1.606,1.606,0,0,1,1.6,1.6V9.91A2.524,2.524,0,0,0,30.769,11.9a1.59,1.59,0,0,1,.612,1.258v3.063a1.6,1.6,0,0,1-1.6,1.6H26.167A1.605,1.605,0,0,1,24.564,16.217Zm.9,5.4a.281.281,0,0,1,.143-.264l4.811.042a.293.293,0,0,1,.066.222l-.335,3.611H25.8ZM6.619,2.512a.724.724,0,0,1,.723-.724H19.3a.724.724,0,0,1,.724.724v22.72H6.619Zm29.506,25.7H1.875V26.5a.272.272,0,0,1,.271-.272H35.854a.272.272,0,0,1,.271.272Z"/><path class="cls-1" d="M17.391,3.5H9.25a.919.919,0,0,0-.918.918v9.737h9.977V4.418A.919.919,0,0,0,17.391,3.5Zm-.082,9.655H9.332V4.5h7.977Z"/><path class="cls-1" d="M8.332,23.572h9.977V15.213H8.332Zm1-7.359h7.977v6.359H9.332Z"/></svg>