<svg id="レイヤー_1" data-name="レイヤー 1" xmlns="http://www.w3.org/2000/svg" viewBox="0 0 34 34"><defs><style>.cls-1{fill:#4cc764;}.cls-2{fill:#fff;}</style></defs><path class="cls-1" d="M17,0A17,17,0,1,0,34,17,17,17,0,0,0,17,0Z"/><path class="cls-2" d="M25.905,21.676a36.606,36.606,0,0,1-8.917,6.589c-1.211.511-1.032-.325-.983-.611.029-.171.162-.972.162-.972a2.325,2.325,0,0,0-.036-1.026c-.128-.316-.631-.48-1-.56-5.454-.721-9.492-4.533-9.492-9.086,0-5.078,5.092-9.21,11.349-9.21s11.349,4.132,11.349,9.21a8.2,8.2,0,0,1-2.432,5.666Z"/><rect class="cls-1" x="13.666" y="13.556" width="1.238" height="5.386" rx="0.217"/><path class="cls-1" d="M12.768,17.7H10.6V13.773a.217.217,0,0,0-.217-.217h-.8a.217.217,0,0,0-.216.217v4.949h0v0a.216.216,0,0,0,.216.216h3.189a.216.216,0,0,0,.216-.216v-.8A.217.217,0,0,0,12.768,17.7Z"/><path class="cls-1" d="M20.166,13.556h-.8a.217.217,0,0,0-.216.217v2.941l-2.266-3.06-.018-.022v0l-.013-.013,0,0-.012-.01-.006,0-.011-.008-.007,0L16.8,13.58l-.007,0-.012-.006-.008,0-.013-.005-.007,0-.013,0-.009,0h-.832a.217.217,0,0,0-.216.217v4.953a.216.216,0,0,0,.216.216H16.7a.217.217,0,0,0,.217-.216V15.785l2.269,3.064a.22.22,0,0,0,.056.054l0,0,.014.008.006,0,.011,0,.01,0,.007,0,.015.005h0a.262.262,0,0,0,.057.007h.8a.217.217,0,0,0,.217-.216V13.773A.217.217,0,0,0,20.166,13.556Z"/><path class="cls-1" d="M24.562,13.556H21.373a.217.217,0,0,0-.216.217v0h0v4.944h0v0a.216.216,0,0,0,.216.216h3.189a.217.217,0,0,0,.217-.216v-.8a.217.217,0,0,0-.217-.217H22.4v-.836h2.167a.217.217,0,0,0,.217-.217v-.8a.217.217,0,0,0-.217-.217H22.4v-.836h2.167a.217.217,0,0,0,.217-.217v-.8A.217.217,0,0,0,24.562,13.556Z"/></svg>