<svg id="レイヤー_1" data-name="レイヤー 1" xmlns="http://www.w3.org/2000/svg" viewBox="0 0 34 34"><defs><style>.cls-1{fill:#4a92e3;}.cls-1,.cls-2{fill-rule:evenodd;}.cls-2{fill:#fff;}</style></defs><path class="cls-1" d="M17,0A17,17,0,1,1,0,17,17,17,0,0,1,17,0Z"/><path class="cls-2" d="M17,16a2,2,0,0,0-.82,3.82,1.992,1.992,0,0,1,2.64-2.64A2,2,0,0,0,17,16Z"/><path class="cls-2" d="M24,12H21V10h-.021c0-.084-.1-.167-.291-.232L17.677,9.1a2.6,2.6,0,0,0-1.415,0l-2.985.661c-.216.072-.3.169-.277.263V12H10a2,2,0,0,0-2,2v8a2,2,0,0,0,2,2H24a2,2,0,0,0,2-2V14A2,2,0,0,0,24,12ZM17,22a4,4,0,1,1,4-4A4,4,0,0,1,17,22Z"/></svg>