<svg xmlns="http://www.w3.org/2000/svg" width="17" height="17" viewBox="0 0 17 17">
  <g id="_8686906_ic_fluent_cart_regular_icon" data-name="8686906_ic_fluent_cart_regular_icon" transform="translate(-2.997 -2.996)">
    <path id="Path_137" data-name="Path 137" d="M3,3.6A.607.607,0,0,1,3.6,3h.532A1.863,1.863,0,0,1,5.819,4.143a7.421,7.421,0,0,1,.466,1.285h12.5A1.214,1.214,0,0,1,19.95,6.973l-1.816,6.4A2.428,2.428,0,0,1,15.8,15.142H9.633A2.428,2.428,0,0,1,7.29,13.353L6.511,10.5q-.007-.019-.013-.04L5.248,6.209c-.043-.141-.082-.277-.12-.409a6.305,6.305,0,0,0-.389-1.1c-.193-.377-.371-.487-.6-.487H3.6A.607.607,0,0,1,3,3.6Zm4.671,6.522.793,2.908a1.214,1.214,0,0,0,1.171.894H15.8a1.214,1.214,0,0,0,1.168-.883l1.816-6.4H6.643Z" transform="translate(0 0)"/>
    <path id="Path_138" data-name="Path 138" d="M10.642,15.82A1.821,1.821,0,1,1,8.821,14,1.821,1.821,0,0,1,10.642,15.82Zm-1.214,0a.607.607,0,1,0-.607.607A.607.607,0,0,0,9.428,15.82Z" transform="translate(0.857 2.355)"/>
    <path id="Path_139" data-name="Path 139" d="M15.642,15.82A1.821,1.821,0,1,1,13.821,14,1.821,1.821,0,0,1,15.642,15.82Zm-1.214,0a.607.607,0,1,0-.607.607A.607.607,0,0,0,14.428,15.82Z" transform="translate(1.927 2.355)"/>
  </g>
</svg>
