<svg id="instagram" xmlns="http://www.w3.org/2000/svg" width="17.5" height="17.5" viewBox="0 0 17.5 17.5">
  <path id="Shape" d="M8.751,17.5c-2.338,0-2.653-.01-3.608-.052a6.459,6.459,0,0,1-2.124-.407,4.275,4.275,0,0,1-1.549-1.008A4.271,4.271,0,0,1,.459,14.481a6.4,6.4,0,0,1-.408-2.122C.01,11.4,0,11.088,0,8.752S.01,6.1.052,5.142A6.439,6.439,0,0,1,.459,3.019,4.283,4.283,0,0,1,1.471,1.471,4.259,4.259,0,0,1,3.023.459,6.44,6.44,0,0,1,5.147.052C6.1.01,6.417,0,8.755,0c2.358,0,2.67.011,3.611.055A6.448,6.448,0,0,1,14.49.461,4.285,4.285,0,0,1,16.04,1.47a4.093,4.093,0,0,1,1,1.555,6.4,6.4,0,0,1,.408,2.123c.042.955.052,1.269.052,3.606s-.01,2.653-.052,3.606a6.438,6.438,0,0,1-.408,2.123,4.46,4.46,0,0,1-2.558,2.557,6.4,6.4,0,0,1-2.123.407C11.4,17.49,11.09,17.5,8.751,17.5Zm0-15.923c-2.325,0-2.6.009-3.537.052a4.8,4.8,0,0,0-1.624.3,2.743,2.743,0,0,0-1.006.655A2.708,2.708,0,0,0,1.935,3.59a4.818,4.818,0,0,0-.3,1.625c-.043.933-.052,1.211-.052,3.535s.009,2.6.052,3.536a4.8,4.8,0,0,0,.3,1.623,2.751,2.751,0,0,0,.657,1.005,2.707,2.707,0,0,0,1.006.653,4.822,4.822,0,0,0,1.624.3c.894.04,1.164.052,3.536.052s2.639-.012,3.537-.052a4.827,4.827,0,0,0,1.624-.3,2.769,2.769,0,0,0,1.006-.657,2.705,2.705,0,0,0,.653-1.005,4.819,4.819,0,0,0,.3-1.623c.04-.894.052-1.164.052-3.535s-.012-2.638-.052-3.536a4.82,4.82,0,0,0-.3-1.623,2.744,2.744,0,0,0-.657-1.005,2.69,2.69,0,0,0-1.006-.653,4.8,4.8,0,0,0-1.624-.3C11.359,1.586,11.08,1.577,8.755,1.577Z" transform="translate(0 0)"/>
  <path id="Shape-2" data-name="Shape" d="M4.5,8.991a4.5,4.5,0,1,1,4.5-4.5A4.5,4.5,0,0,1,4.5,8.991Zm0-7.412A2.916,2.916,0,1,0,7.415,4.5,2.92,2.92,0,0,0,4.5,1.579Z" transform="translate(4.258 4.256)"/>
  <path id="Shape-3" data-name="Shape" d="M2.1,1.05A1.05,1.05,0,1,1,1.05,0,1.05,1.05,0,0,1,2.1,1.05Z" transform="translate(12.379 3.029)"/>
</svg>
