<svg xmlns="http://www.w3.org/2000/svg" xmlns:xlink="http://www.w3.org/1999/xlink" width="72.455" height="170" viewBox="0 0 72.455 170">
  <defs>
    <clipPath id="clip-path">
      <rect id="Rectangle_4" data-name="Rectangle 4" width="72.455" height="170" fill="#b16d03"/>
    </clipPath>
  </defs>
  <g id="Group_18" data-name="Group 18" clip-path="url(#clip-path)">
    <path id="Path_44" data-name="Path 44" d="M56.5,150.123l1.991,3.993-3.427-2.379Zm8.932-100.6L61.1,48.449l.3,2.139ZM8,138.052l4.33,1.074-.3-2.139Zm.421-11.1a1.4,1.4,0,0,0-1.133-.3,1.256,1.256,0,0,0-.934.58,2.245,2.245,0,0,0-.207,1.507l.062.452H9.195l-.114-.815a2.2,2.2,0,0,0-.656-1.426m4.359-94.318a3.033,3.033,0,0,0-2.329.42A3.45,3.45,0,0,0,9.088,35.34L8.9,36.3l6.264,2.146.369-1.908a3.181,3.181,0,0,0-2.752-3.905m1.16-11.363,2.521,3.683,1.2-1.8Zm-6.838,96.2a1.394,1.394,0,0,0-1.134-.3,1.254,1.254,0,0,0-.932.578,2.245,2.245,0,0,0-.207,1.507l.062.452h2.98l-.112-.815a2.205,2.205,0,0,0-.656-1.424m57.9-56.993a1.4,1.4,0,0,0,1.134.3c.893-.126,1.307-.887,1.138-2.091l-.062-.451-2.982,0,.114.815a2.2,2.2,0,0,0,.658,1.424m2.719,41.98,4.649,15.276-4.042,31.719L55.153,165.175,31.464,170l-10.182-3.394L4.988,147.524,0,109.021,5.592,94.926l10.49-12.5.466-11.666L6.236,54.265,4.2,39.1,7.448,22.428,23.35,2.443,33.812,0,49.326,8.254l2.4,10.4-14.108,3.26L36.7,17.939l-4.893-2.6-.264.062L20.983,28.673,18.866,39.535l1.3,9.706L31.195,66.88l-.842,21.071-12.164,14.49-3.348,8.435,3.954,30.518,10.885,12.748,2.691.9L47.306,152l7.2-8.591,3.113-24.427-2.861-9.4-1.7-1.984-9.943-6.412-4.7-13.634,5.4-8.484,10.2-5.44,3.524-7.985L55.018,47.682l-5-7.5-8.283-1.909,3.254-14.11,13.887,3.2L68.9,42.4l3.556,25.315L65.247,84.048,54.5,89.778l.671,1.953,7.5,4.836Zm1.965-35.5-9.7-3.3-.083-.028-.421,2.212-.012.066,3.631,1.24-.309,1.621a4.415,4.415,0,0,0,.218,2.633,3.059,3.059,0,0,0,2.374,1.7,3.531,3.531,0,0,0,.661.064,3.108,3.108,0,0,0,3.007-2.862l.625-3.272ZM68.66,55.933l-10.338,0,.323,2.3,3.838,0,.23,1.635a4.4,4.4,0,0,0,1.055,2.42,2.877,2.877,0,0,0,2.174.886,4.388,4.388,0,0,0,.621-.046c1.851-.259,2.861-1.764,2.571-3.831L68.67,56ZM55.192,43.953l9.29-4.33.081-.036L63.3,37.643l-3.653,1.7L56.9,35.136l3.653-1.7-1.265-1.944L49.994,35.82l-.08.036L51.182,37.8l3.762-1.756L57.7,40.267l-3.769,1.744Zm4.24,4.031.425,3.021-2.137.616.33,2.358L68.068,50.74l-.337-2.388L56.758,44.778l.356,2.536ZM56.2,73.952,59.36,76.9l2.65,6.614,1.429-2.047-1.788-4.052,3.836,1.12,1.333-1.909L60.7,75.008l-3.173-2.957ZM36.146,10.776a1.606,1.606,0,0,0,.815.925,1.625,1.625,0,0,0,.723.171,1.6,1.6,0,1,0-1.459-2.32,1.58,1.58,0,0,0-.079,1.224m-11,62.536L18.82,72.148l-.093,2.319,6.131,1.124a2.346,2.346,0,0,1,2.079,2.564,2.435,2.435,0,0,1-.761,1.771,2.263,2.263,0,0,1-1.884.318l-5.756-1.067-.093,2.319L24.2,82.573a5.426,5.426,0,0,0,1,.1,3.5,3.5,0,0,0,2.231-.718,4.758,4.758,0,0,0,1.512-3.717c.112-2.785-1.167-4.44-3.8-4.922M15.8,15.307l5.965,2.113,2.919,3.209,1.481-1.785-2.907-3.2L21.2,8.974l-.041-.136-1.568,1.89-.028.033,1.447,4.185-3.731-1.433Zm-4.345,5.305,5.813,9.97,1.423-2.13L17.4,26.409l1.7-2.536,2.006.963,1.322-1.98L12.85,18.633l-.059-.026ZM6.709,37.975,16.4,41.3l.083.028L17.5,36.082a4.968,4.968,0,0,0-4.23-5.792,5.128,5.128,0,0,0-3.475.473,5.223,5.223,0,0,0-2.427,3.819ZM13.8,60.543a3.025,3.025,0,0,0,.932.15,2.88,2.88,0,0,0,1.519-.435c1.29-.8,1.283-2.188,1.278-3.415,0-.955-.007-1.778.585-2.146.534-.33,1.165-.079,1.607.637a5.53,5.53,0,0,1,.625,2.951l-.009.121,1.83-.708v-.052a6.157,6.157,0,0,0-1.017-3.494,3.653,3.653,0,0,0-2.2-1.737,3.066,3.066,0,0,0-2.348.4c-1.436.887-1.405,2.415-1.379,3.643.017.858.031,1.6-.445,1.894a.9.9,0,0,1-.837.059,1.616,1.616,0,0,1-.754-.671,4.857,4.857,0,0,1-.563-2.567l.009-.123L10.8,55.8l0,.052a5.912,5.912,0,0,0,.863,2.937,4.019,4.019,0,0,0,2.13,1.756m4.932,10.125,1.745-.63-1.511-2.85,7.9-2.849.081-.029L25.859,62.26l-7.98,2.878-1.552-2.93-1.747.632ZM12.194,91.4l7.981,6.571,1.208-1.98-5.252-4.3,7.845-.014h.041l1.131-1.851-7.99-6.559-1.208,1.98,5.062,4.137-7.591.078-.043,0ZM2.75,112.648l6.243-1.032,4.105,1.4.433-2.279-4.086-1.393L4.325,104.39l-.468,2.455,3.287,2.966-3.9.541-.054.007Zm.7,9.352,10.25.016h.086l-.318-2.3-3.838-.007L9.4,118.074a4.428,4.428,0,0,0-1.051-2.42,3.062,3.062,0,0,0-2.793-.844c-1.852.259-2.862,1.761-2.576,3.828Zm11.569,9.5H15.1l-.319-2.3-3.838-.009-.226-1.635a4.416,4.416,0,0,0-1.051-2.42,3.062,3.062,0,0,0-2.793-.844c-1.852.257-2.862,1.761-2.576,3.827l.468,3.363ZM5.7,139.216,16.67,142.8l-.352-2.536L14,139.592l-.42-3.021,2.075-.6.062-.019-.326-2.358-9.96,3.211-.06.019Zm17.872,13.261L22.545,150.4,18.6,151.705l-2.239-4.518,3.947-1.292-1.031-2.077-9.732,3.216-.085.028,1.031,2.077,3.829-1.265,2.234,4.5-3.746,1.238-.083.028,1.031,2.077,9.732-3.215Zm23.776-52.409L56.6,95.643l.078-.038-1.283-1.934L49.5,96.508l3.14-6.913.017-.038L51.4,87.663,42.07,92.114l1.283,1.932,6.124-2.937L46.17,98.222l-.017.038Zm10.51,8.316a4.872,4.872,0,0,0,2.707-.938l5.349-3.579-1.549-1.728-5.179,3.472a2.347,2.347,0,0,1-3.278-.385,2.436,2.436,0,0,1-.689-1.8,2.261,2.261,0,0,1,1.129-1.544l4.869-3.251-1.549-1.725-4.882,3.246a3.9,3.9,0,0,0-1.887,2.7,4.761,4.761,0,0,0,1.507,3.717,4.668,4.668,0,0,0,3.453,1.811M33.491,162.471a1.621,1.621,0,0,0-2.636-1.391,1.584,1.584,0,0,0-.578,1.081,1.609,1.609,0,0,0,1.452,1.747c.054.005.107.009.159.009a1.61,1.61,0,0,0,1.6-1.445m21.287-.83-4.523-4.423-1.3-4.14-2.094,1,1.293,4.121-.944,6.92-.017.14,2.255-1.075.445-4.4,2.745,2.828.038.04Zm6.091-6.53-4.337-10.557-.047-.112-1.668,1.877-.035.036.991,2.2-2.027,2.279L51.893,149.6l-1.583,1.781,8.9,5.5.054.034,1.571-1.768Zm7.344-16.251-9.373-4.149-.081-.036-1.461,5.14a4.968,4.968,0,0,0,3.717,6.134,5.72,5.72,0,0,0,1.578.226,4.665,4.665,0,0,0,1.927-.4,5.22,5.22,0,0,0,2.747-3.594l.927-3.259Zm1.127-19.289a2.9,2.9,0,0,0-2.129-1.25c-1.514-.131-2.345.97-3.08,1.953-.573.765-1.06,1.431-1.761,1.359a.905.905,0,0,1-.706-.438,1.68,1.68,0,0,1-.193-1.038,5.54,5.54,0,0,1,1.283-2.731l.079-.09-1.839-.525-.048-.014-.033.042a6.154,6.154,0,0,0-1.295,3.4,3.65,3.65,0,0,0,.706,2.714,3.074,3.074,0,0,0,2.117,1.093c.1.009.2.014.288.014,1.5,0,2.334-1.151,3.013-2.089.5-.694.944-1.292,1.5-1.241.6.055.977.665.9,1.447a4.888,4.888,0,0,1-1.1,2.387l-.081.092,1.908.507.031-.041a5.91,5.91,0,0,0,1.081-2.862,4.014,4.014,0,0,0-.639-2.685m.414-3.655-2.522-8.494-1.837.273.919,3.092-8.3,1.227-.086.014.66,2.224,8.392-1.241.943,3.178ZM61.7,143.656a3.035,3.035,0,0,0,2.358-.217,3.441,3.441,0,0,0,1.557-2.16l.268-.941-6.058-2.679-.532,1.87a3.182,3.182,0,0,0,2.407,4.128m4.05-72.931c.887.166,1.523-.42,1.751-1.611l.086-.447-2.824-.958-.154.808c-.233,1.221.183,2.025,1.141,2.208m-31.14,34.161H24.826l1.348,9.615,8.434-3.543ZM49.751,64.323l.834-7.08L38.506,59.325l5.623,9.162Zm-3.315,52.743-7.5,1.875,3.123,7.912,10.828-4.164s-5.83-5.414-6.455-5.623m-18.8-75.955,4,8.921,8.565-3.57L34,40.571Zm9.6,100.689-5.761-9.777-5.706,6.4,3.579,7.085Z" transform="translate(0 0.001)" fill="#b16d03"/>
  </g>
</svg>
